<svg width="255" height="338" viewBox="0 0 255 338" fill="none" xmlns="http://www.w3.org/2000/svg">
<path d="M103.192 49H95.8853V57.1184H103.192V49Z" fill="#AB77FF"/>
<path d="M110.499 4.46513V3.65329C110.499 1.63563 108.863 0 106.846 0C104.828 0 103.192 1.63563 103.192 3.65329V4.46513C103.192 6.48279 104.828 8.11842 106.846 8.11842C108.863 8.11842 110.499 6.48279 110.499 4.46513Z" fill="#AB77FF"/>
<path d="M117.804 49H110.498V57.1184H117.804V49Z" fill="#AB77FF"/>
<path d="M103.192 57.1182H95.8853V65.2366H103.192V57.1182Z" fill="#AB77FF"/>
<path d="M110.499 57.1182H103.192V65.2366H110.499V57.1182Z" fill="#AB77FF"/>
<path d="M117.804 57.1182H110.498V65.2366H117.804V57.1182Z" fill="#ADFF00"/>
<path d="M125.112 57.1182H117.805V65.2366H125.112V57.1182Z" fill="#AB77FF"/>
<path d="M103.192 65.2363H95.8853V73.3547H103.192V65.2363Z" fill="#AB77FF"/>
<path d="M125.112 65.2363H117.805V73.3547H125.112V65.2363Z" fill="#AB77FF"/>
<path d="M103.192 239.842H95.8853V247.96H103.192V239.842Z" fill="#AB77FF"/>
<path d="M110.499 239.842H103.192V247.96H110.499V239.842Z" fill="#AB77FF"/>
<path d="M125.112 239.842H117.805V247.96H125.112V239.842Z" fill="#AB77FF"/>
<path d="M132.417 239.842H125.111V247.96H132.417V239.842Z" fill="#AB77FF"/>
<path d="M110.499 247.961H103.192V256.079H110.499V247.961Z" fill="#AB77FF"/>
<path d="M117.804 247.961H110.498V256.079H117.804V247.961Z" fill="#AB77FF"/>
<path d="M125.112 247.961H117.805V256.079H125.112V247.961Z" fill="#AB77FF"/>
<path d="M139.724 247.961H132.418V256.079H139.724V247.961Z" fill="white"/>
<path d="M147.032 247.961H139.725V256.079H147.032V247.961Z" fill="white"/>
<path d="M103.192 256.079H95.8853V264.198H103.192V256.079Z" fill="#AB77FF"/>
<path d="M110.499 256.079H103.192V264.198H110.499V256.079Z" fill="#AB77FF"/>
<path d="M125.112 256.079H117.805V264.198H125.112V256.079Z" fill="#AB77FF"/>
<path d="M139.724 256.079H132.418V264.198H139.724V256.079Z" fill="#AB77FF"/>
<path d="M147.032 256.079H139.725V264.198H147.032V256.079Z" fill="#AB77FF"/>
<path d="M103.192 264.197H95.8853V272.316H103.192V264.197Z" fill="#AB77FF"/>
<path d="M125.112 264.197H117.805V272.316H125.112V264.197Z" fill="#AB77FF"/>
<path d="M103.192 272.316H95.8853V280.435H103.192V272.316Z" fill="#AB77FF"/>
<path d="M110.499 272.316H103.192V280.435H110.499V272.316Z" fill="#AB77FF"/>
<path d="M117.804 272.316H110.498V280.435H117.804V272.316Z" fill="#AB77FF"/>
<path d="M139.724 272.316H132.418V280.435H139.724V272.316Z" fill="#AB77FF"/>
<path d="M147.032 272.316H139.725V280.435H147.032V272.316Z" fill="#AB77FF"/>
<path d="M73.9645 280.434H66.658V288.552H73.9645V280.434Z" fill="#AB77FF"/>
<path d="M117.804 280.434H110.498V288.552H117.804V280.434Z" fill="#AB77FF"/>
<path d="M147.032 280.434H139.725V288.552H147.032V280.434Z" fill="#AB77FF"/>
<path d="M8.20648 288.553H0.899902V296.671H8.20648V288.553Z" fill="#AB77FF"/>
<path d="M66.6591 288.553H59.3525V296.671H66.6591V288.553Z" fill="#AB77FF"/>
<path d="M73.9645 288.553H66.658V296.671H73.9645V288.553Z" fill="#AB77FF"/>
<path d="M117.804 288.553H110.498V296.671H117.804V288.553Z" fill="#AB77FF"/>
<path d="M125.112 288.553H117.805V296.671H125.112V288.553Z" fill="#AB77FF"/>
<path d="M132.417 288.553H125.111V296.671H132.417V288.553Z" fill="#AB77FF"/>
<path d="M139.724 288.553H132.418V296.671H139.724V288.553Z" fill="#AB77FF"/>
<path d="M147.032 288.553H139.725V296.671H147.032V288.553Z" fill="#AB77FF"/>
<path d="M66.6591 296.671H59.3525V304.789H66.6591V296.671Z" fill="#AB77FF"/>
<path d="M73.9645 296.671H66.658V304.789H73.9645V296.671Z" fill="#AB77FF"/>
<path d="M110.499 296.671H103.192V304.789H110.499V296.671Z" fill="#AB77FF"/>
<path d="M117.804 296.671H110.498V304.789H117.804V296.671Z" fill="#AB77FF"/>
<path d="M183.564 304.789H176.258V312.907H183.564V304.789Z" fill="#AB77FF"/>
<path d="M190.87 304.789H183.563V312.907H190.87V304.789Z" fill="#AB77FF"/>
<path d="M198.177 304.789H190.87V312.907H198.177V304.789Z" fill="#AB77FF"/>
<path d="M205.484 304.789H198.177V312.907H205.484V304.789Z" fill="#AB77FF"/>
<path d="M212.791 304.789H205.485V312.907H212.791V304.789Z" fill="#AB77FF"/>
<path d="M81.2719 312.908H73.9653V321.027H81.2719V312.908Z" fill="#AB77FF"/>
<path d="M190.87 312.908H183.563V321.027H190.87V312.908Z" fill="#AB77FF"/>
<path d="M44.7392 321.026H37.4326V329.145H44.7392V321.026Z" fill="#AB77FF"/>
<path d="M73.9645 321.026H66.658V329.145H73.9645V321.026Z" fill="#AB77FF"/>
<path d="M81.2719 321.026H73.9653V329.145H81.2719V321.026Z" fill="#AB77FF"/>
<path d="M73.9645 329.145H66.658V337.263H73.9645V329.145Z" fill="#AB77FF"/>
<path d="M81.2719 329.145H73.9653V337.263H81.2719V329.145Z" fill="#AB77FF"/>
<path d="M205.484 329.145H198.177V337.263H205.484V329.145Z" fill="#AB77FF"/>
<path d="M212.791 329.145H205.485V337.263H212.791V329.145Z" fill="#AB77FF"/>
</svg>
